Coordinates
version=1
nRows=8
nColumns=63
inDegrees=yes

Units are S.I. units (second, meters, Newtons, ...)
If the header above contains a line with 'inDegrees', this indicates whether rotational values are in degrees (yes) or radians (no).

endheader
time	pelvis_tilt	pelvis_list	pelvis_rotation	pelvis_tx	pelvis_ty	pelvis_tz	hip_flexion_r	hip_adduction_r	hip_rotation_r	knee_angle_r	knee_angle_r_beta	ankle_angle_r	subtalar_angle_r	mtp_angle_r	hip_flexion_l	hip_adduction_l	hip_rotation_l	knee_angle_l	knee_angle_l_beta	ankle_angle_l	subtalar_angle_l	mtp_angle_l	L5_S1_Flex_Ext	L5_S1_Lat_Bending	L5_S1_axial_rotation	L4_L5_Flex_Ext	L4_L5_Lat_Bending	L4_L5_axial_rotation	L3_L4_Flex_Ext	L3_L4_Lat_Bending	L3_L4_axial_rotation	L2_L3_Flex_Ext	L2_L3_Lat_Bending	L2_L3_axial_rotation	L1_L2_Flex_Ext	L1_L2_Lat_Bending	L1_L2_axial_rotation	L1_T12_Flex_Ext	L1_T12_Lat_Bending	L1_T12_axial_rotation	Abs_r3	Abs_r2	Abs_r1	Abs_t1	Abs_t2	neck_flexion	neck_bending	neck_rotation	arm_flex_r	arm_add_r	arm_rot_r	elbow_flex_r	pro_sup_r	wrist_flex_r	wrist_dev_r	arm_flex_l	arm_add_l	arm_rot_l	elbow_flex_l	pro_sup_l	wrist_flex_l	wrist_dev_l
      0.03333333	     -5.56793330	     -0.81010495	      1.45776803	     -2.49908645	      0.89875043	      0.39518482	     12.25074463	     -3.53370904	    -21.83232944	     17.61823160	      0.30749615	     12.55736541	     -6.63825090	      0.00000000	     13.08998886	     -2.64602334	     -3.20929355	     15.90679738	      0.27762599	     12.51407584	     -8.36452622	      0.00000000	      0.01827980	      0.06200702	     -0.05440329	      0.03394742	      0.08246934	     -0.05780349	      0.03003189	      0.15076387	     -0.05780349	      0.02089199	      0.15076387	     -0.04760288	      0.01697462	      0.12644472	     -0.04420267	      0.01044508	      0.09604888	     -0.04080246	      0.13057080	      0.70143583	     -0.30257476	      0.00000000	      0.00000000	      0.00000000	      0.00000000	      0.00000001	     -3.38011935	    -12.41843712	     21.38282475	     37.21352953	     61.70358899	      0.00000000	      4.47275670	      1.83497437	    -14.58653607	     37.29942089	     32.24418580	     61.80616137	      0.00000000	      4.47275670
      0.06666667	     -5.89161118	     -0.83056479	      1.54826942	     -2.50019139	      0.89887317	      0.39375082	     12.69850289	     -3.38700783	    -18.17751485	     18.69363085	      0.32626541	     11.49118250	    -10.06099494	      0.00000000	     13.73084820	     -2.49270974	     -3.46425983	     16.27990937	      0.28413802	     11.97439819	     -9.00763236	      0.00000000	      0.01342310	      0.08141638	      0.03875623	      0.02492804	      0.10828378	      0.04117849	      0.02205281	      0.19795578	      0.04117849	      0.01534126	      0.19795578	      0.03391170	      0.01246469	      0.16602427	      0.03148944	      0.00766996	      0.12611397	      0.02906717	      0.09587985	      0.92099833	      0.21555052	      0.00000000	      0.00000000	      0.00000000	      0.00000000	      0.00000001	     -2.98221706	    -12.22797314	     20.97425042	     36.03207572	     61.97465170	      0.00000000	      4.54318584	      2.57290310	    -14.57671638	     38.25671091	     32.24235296	     62.29808173	      0.00000000	      4.54318584
      0.10000000	     -6.17873576	     -0.85995988	      1.48230854	     -2.50114975	      0.89896606	      0.39242488	     13.01457829	     -3.39223472	    -16.31392626	     19.47777902	      0.33995137	     11.06860670	    -10.78007842	      0.00000000	     14.31607550	     -2.44265435	     -4.11252071	     16.69043192	      0.29130299	     11.75920244	     -9.07375087	      0.00000000	      0.01234508	      0.09337687	      0.13169324	      0.02292604	      0.12419123	      0.13992406	      0.02028173	      0.22703651	      0.13992406	      0.01410919	      0.22703651	      0.11523158	      0.01146364	      0.19041411	      0.10700076	      0.00705398	      0.14464077	      0.09876993	      0.08817966	      1.05629779	      0.73243828	      0.00000000	      0.00000000	      0.00000000	      0.00000000	      0.00000001	     -2.77069837	    -12.05620590	     20.39078069	     35.24917350	     61.98394520	      0.00000000	      4.55937301	      3.02506616	    -14.50951649	     38.31520278	     32.30172687	     62.38154179	      0.00000000	      4.55937301
      0.13333333	     -6.33952657	     -1.00881024	      1.20171031	     -2.50178074	      0.89916448	      0.39120409	     13.15420069	     -3.00519929	    -13.77545041	     19.62229510	      0.34247366	     10.10854336	    -12.97013814	      0.00000000	     14.64481470	     -2.59692276	     -4.99795241	     16.96659769	      0.29612299	     11.85313009	     -8.80472177	      0.00000000	      0.01057487	      0.10743045	      0.20658514	      0.01963858	      0.14288250	      0.21949671	      0.01737345	      0.26120640	      0.21949671	      0.01208601	      0.26120640	      0.18076199	      0.00981982	      0.21907218	      0.16785042	      0.00604248	      0.16640977	      0.15493885	      0.07553521	      1.21527476	      1.14896455	      0.00000000	      0.00000000	      0.00000000	      0.00000000	      0.00000001	     -2.80647424	    -11.74593992	     18.74973274	     34.94293019	     61.91348985	      0.00000000	      4.59623883	      3.26713504	    -14.46660143	     38.24215469	     32.33145625	     62.53412972	      0.00000000	      4.59623883
      0.16666667	     -6.32458027	     -1.26512761	      1.09495117	     -2.50212416	      0.89953551	      0.38921188	     12.98980785	     -2.81676451	    -13.36280072	     19.38982500	      0.33841629	      9.89056687	    -12.71649443	      0.00000000	     14.84716039	     -2.75948866	     -5.23827705	     17.33430021	      0.30254061	     12.01349139	     -9.01518750	      0.00000000	      0.00975534	      0.11804600	      0.17178165	      0.01811665	      0.15700118	      0.18251800	      0.01602705	      0.28701705	      0.18251800	      0.01114938	      0.28701705	      0.15030894	      0.00905881	      0.24071941	      0.13957259	      0.00557420	      0.18285326	      0.12883624	      0.06968144	      1.33536000	      0.95539799	      0.00000000	      0.00000000	      0.00000000	      0.00000000	      0.00000001	     -2.39790755	    -11.66113856	     18.67230891	     34.23598043	     61.93617112	      0.00000000	      4.60186760	      3.25202021	    -14.47603371	     38.10010972	     32.28266224	     62.53810892	      0.00000000	      4.60186760
      0.20000000	     -6.12943467	     -1.64691956	      1.12601526	     -2.50205345	      0.90009642	      0.38632527	     12.54064990	     -2.52573507	    -13.23484074	     18.78514691	      0.32786266	      9.60992452	    -12.64085592	      0.00000000	     14.86132869	     -2.97687624	     -5.14119157	     17.73266014	      0.30949330	     12.34471536	     -9.28083202	      0.00000000	      0.00965848	      0.12582216	      0.01019292	      0.01793677	      0.16734347	      0.01082998	      0.01586792	      0.30592399	      0.01082998	      0.01103868	      0.30592399	      0.00891881	      0.00896887	      0.25657654	      0.00828175	      0.00551886	      0.19489852	      0.00764469	      0.06898959	      1.42332541	      0.05668997	      0.00000000	      0.00000000	      0.00000000	      0.00000000	      0.00000001	     -1.29215605	    -11.99925533	     21.32762953	     33.06386528	     62.44583724	      0.00000000	      4.64452681	      2.51305474	    -14.24953978	     35.72545838	     32.28576901	     62.38206357	      0.00000000	      4.64452681
      0.23333333	     -5.76683698	     -2.05340294	      1.28720827	     -2.50145912	      0.90088696	      0.38248535	     11.79311480	     -2.30226248	    -13.58229742	     17.97811419	      0.31377729	      9.52268873	    -12.05631851	      0.00000000	     14.58417121	     -3.09682648	     -4.59561161	     17.93301017	      0.31299007	     12.58176556	     -9.81446537	      0.00000000	      0.01001096	      0.12228280	     -0.25690254	      0.01859135	      0.16263612	     -0.27295895	      0.01644700	      0.29731839	     -0.27295895	      0.01144152	      0.29731839	     -0.22478972	      0.00929617	      0.24935908	     -0.20873331	      0.00572026	      0.18941605	     -0.19267691	      0.07150725	      1.38328746	     -1.42881486	      0.00000000	      0.00000000	      0.00000000	      0.00000000	      0.00000001	      0.43359245	    -12.47701375	     26.06684636	     31.35128969	     63.19194342	      0.00000000	      4.68309383	      1.42279086	    -14.02681686	     32.97367573	     32.32372138	     62.23336654	      0.00000000	      4.68309383
      0.26666667	     -5.33070601	     -2.32798868	      1.27334266	     -2.50016731	      0.90172108	      0.37837310	     10.86621273	     -2.13790935	    -13.41488811	     17.05063042	      0.29758964	      9.50427754	    -11.72499251	      0.00000000	     14.04240218	     -3.11579569	     -4.40977539	     17.93399268	      0.31300722	     12.86600932	     -9.96972806	      0.00000000	      0.01107639	      0.09805866	     -0.49675434	      0.02056997	      0.13041802	     -0.52780149	      0.01819740	      0.23841983	     -0.52780149	      0.01265921	      0.23841983	     -0.43466005	      0.01028554	      0.19996122	     -0.40361290	      0.00632905	      0.15189287	     -0.37256576	      0.07911756	      1.10925919	     -2.76279862	      0.00000000	      0.00000000	      0.00000000	      0.00000000	      0.00000001	      1.64582728	    -12.14354246	     27.02540319	     29.59907787	     63.36617317	      0.00000000	      4.68822476	      0.61170379	    -14.15782698	     32.47615764	     32.20533673	     62.20347941	      0.00000000	      4.68822476
